<svg width="1065" height="66" viewBox="0 0 1065 66" fill="none" xmlns="http://www.w3.org/2000/svg">
<path d="M-1.26907e-05 48.2209V1.35899H3.51463V24.087H35.9899V1.35899H39.5046V48.2209H35.9899V24.7899H3.51463V48.2209H-1.26907e-05ZM66.2429 48.9238C56.9174 48.9238 49.3258 43.1598 49.3258 34.1155C49.3258 24.3213 56.8706 17.0577 66.2429 17.0577C73.9751 17.0577 78.8019 22.1657 78.8019 26.8987C78.8019 31.21 75.0061 31.9598 70.5074 31.9598H50.4505C50.2162 32.7565 50.1224 33.5531 50.1224 34.3498C50.1224 42.738 58.9325 45.4092 66.3367 45.4092C73.5534 45.4092 77.1618 41.0042 77.1618 41.0042L79.0362 44.2845C79.0362 44.2845 75.0998 48.9238 66.2429 48.9238ZM50.5911 31.3975C54.2932 31.3975 58.417 31.3506 61.4162 31.21C71.0697 30.7414 76.74 29.4293 76.74 24.6494C76.74 21.9314 75.1936 19.5883 70.4605 19.5883C60.8538 19.5883 52.6061 25.0242 50.5911 31.3975ZM99.4277 48.2209H82.7918V47.7054H84.1039C88.0403 47.7054 89.3524 44.3313 89.3524 39.8795C89.3524 35.4276 89.3993 30.2259 89.3993 30.2259C89.3993 26.3364 89.0713 22.8217 85.6035 22.8217H83.0729V22.4C86.7282 22.4 90.9457 19.9163 92.6328 17.0577H92.8671V31.0694C94.3667 23.3841 101.443 17.0577 108.378 17.0577C113.721 17.0577 115.642 18.3699 115.642 18.3699V22.2594C112.69 20.8535 110.581 20.1506 107.301 20.1506C98.4905 20.1506 93.3357 26.5238 92.8671 35.0058V39.8795C92.8671 44.3313 94.1792 47.7054 98.1156 47.7054H99.4277V48.2209ZM118.442 48.2209V47.7054H119.754C123.69 47.7054 125.002 44.3313 125.002 39.8795C125.002 35.4276 125.049 30.2259 125.049 30.2259C125.049 26.3364 124.721 22.8217 121.253 22.8217H118.723V22.4C122.378 22.4 126.596 19.9163 128.283 17.0577H128.517V39.8795C128.517 44.3313 129.829 47.7054 133.765 47.7054H135.078V48.2209H118.442ZM126.314 6.23263H127.252V13.6368H126.314V6.23263ZM135.524 17.7607C140.913 17.7607 144.99 12.6527 144.99 3.88953H145.693V17.7607H154.503V18.4636H145.693V41.051C145.693 43.3004 145.646 47.4711 149.489 47.4711C152.535 47.4711 155.066 46.0184 157.83 43.9096L158.112 44.3782C156.237 45.9715 152.582 48.9238 147.661 48.9238C142.835 48.9238 142.085 44.6125 142.085 41.8945V18.4636H135.524V17.7607ZM171.065 48.9238C164.833 48.9238 161.88 44.5188 161.88 39.692C161.88 34.1623 166.567 29.6167 170.034 29.6167H188.123V25.3054C188.123 19.7757 185.639 17.9012 181.656 17.9012C176.314 17.9012 168.816 21.8845 165.114 24.0401L163.661 20.7598C169.285 18.2293 174.018 17.0577 179.782 17.0577C188.076 17.0577 191.638 21.6971 191.638 31.7724V48.2209H188.123V34.0686C185.218 41.1916 180.156 48.9238 171.065 48.9238ZM169.987 30.2728C164.177 30.2728 160.006 45.9247 172.94 45.9247C180.016 45.9247 185.358 40.0201 188.076 32.569L169.987 30.2728ZM211.762 44.6594C204.639 43.0661 200.093 37.5832 200.093 31.0694C200.093 23.3372 206.56 17.0577 216.073 17.0577C223.149 17.0577 229.007 16.7766 232.615 15.7456V19.682C229.522 18.9791 225.398 18.323 221.884 17.9481C228.116 19.9163 232.053 25.0242 232.053 31.0694C232.053 38.8485 225.586 45.128 216.073 45.128C212.043 45.128 202.623 46.2527 202.623 51.7355C202.623 53.0008 203.326 53.7506 204.779 53.7506C211.012 53.7506 221.743 44.9874 229.007 44.9874C232.521 44.9874 235.099 47.3774 235.099 50.6108C235.099 61.2016 219.775 65.9347 213.121 65.9347C209.184 65.9347 205.248 64.2008 203.654 62.7012L205.529 59.0928C208.622 60.9673 211.527 61.8577 216.682 61.8577C224.695 61.8577 234.396 58.1556 234.396 51.1732C234.396 49.0644 232.568 47.7523 230.459 47.7523C223.477 47.7523 214.058 56.7029 205.482 56.7029C202.67 56.7029 201.077 55.0627 201.077 52.9071C201.077 48.2677 206.138 45.3623 211.762 44.6594ZM216.026 17.7607C208.622 17.7607 203.608 23.7121 203.608 31.0226C203.608 38.4268 208.622 44.3782 216.026 44.3782C223.43 44.3782 228.538 38.4268 228.538 31.0226C228.538 23.7121 223.43 17.7607 216.026 17.7607ZM256.253 48.9238C246.928 48.9238 239.336 43.1598 239.336 34.1155C239.336 24.3213 246.881 17.0577 256.253 17.0577C263.985 17.0577 268.812 22.1657 268.812 26.8987C268.812 31.21 265.016 31.9598 260.518 31.9598H240.461C240.227 32.7565 240.133 33.5531 240.133 34.3498C240.133 42.738 248.943 45.4092 256.347 45.4092C263.564 45.4092 267.172 41.0042 267.172 41.0042L269.047 44.2845C269.047 44.2845 265.11 48.9238 256.253 48.9238ZM240.601 31.3975C244.303 31.3975 248.427 31.3506 251.426 31.21C261.08 30.7414 266.75 29.4293 266.75 24.6494C266.75 21.9314 265.204 19.5883 260.471 19.5883C250.864 19.5883 242.616 25.0242 240.601 31.3975ZM301.838 1.35899H305.493L315.662 38.0987C317.959 46.3464 318.474 47.7054 323.301 47.7054C326.347 47.7054 328.924 45.4092 328.924 41.2853C328.924 29.6636 322.785 22.9155 322.785 10.7782C322.785 6.1389 324.847 2.67112 328.69 2.67112C334.923 2.67112 336.188 11.2 337.594 16.3079L346.263 47.9866L359.15 1.35899H362.806L349.825 48.2209H342.608L335.438 22.2594C332.626 12.0904 331.549 5.43598 327.565 5.43598C324.941 5.43598 323.629 8.01338 323.629 11.2469C323.629 22.1657 329.627 30.4134 329.627 41.051C329.627 44.6125 327.519 48.2209 324.051 48.2209H314.819L301.838 1.35899ZM361.904 48.2209V47.7054H363.216C367.152 47.7054 368.464 44.3313 368.464 39.8795C368.464 35.4276 368.511 30.2259 368.511 30.2259C368.511 26.3364 368.183 22.8217 364.715 22.8217H362.185V22.4C365.84 22.4 370.058 19.9163 371.745 17.0577H371.979V39.8795C371.979 44.3313 373.291 47.7054 377.228 47.7054H378.54V48.2209H361.904ZM369.777 6.23263H370.714V13.6368H369.777V6.23263ZM378.986 17.7607C384.376 17.7607 388.452 12.6527 388.452 3.88953H389.155V17.7607H397.965V18.4636H389.155V41.051C389.155 43.3004 389.109 47.4711 392.951 47.4711C395.997 47.4711 398.528 46.0184 401.293 43.9096L401.574 44.3782C399.699 45.9715 396.044 48.9238 391.124 48.9238C386.297 48.9238 385.547 44.6125 385.547 41.8945V18.4636H378.986V17.7607ZM402.999 47.7054H404.312C408.248 47.7054 409.56 44.3313 409.56 39.8795C409.56 35.4276 409.607 30.4602 409.607 30.4602V20.1506C409.607 7.63848 419.589 0.65606 428.633 0.65606C431.163 0.65606 433.085 1.03096 435.1 1.5933V4.9205C432.241 3.84267 429.758 3.32719 426.337 3.32719C420.479 3.32719 413.075 4.77991 413.075 14.4803V26.0552C416.683 21.3222 421.885 17.0577 428.586 17.0577C437.302 17.0577 436.834 24.2276 436.834 28.2577V39.8795C436.834 44.3313 438.146 47.7054 442.082 47.7054H443.394V48.2209H426.758V47.7054H428.071C432.007 47.7054 433.319 44.3313 433.319 39.8795C433.319 35.4276 433.366 26.7113 433.366 26.7113C433.366 21.6033 431.96 18.5573 427.086 18.5573C423.572 18.5573 417.152 21.041 413.075 27.3205V39.8795C413.075 44.3313 414.387 47.7054 418.323 47.7054H419.635V48.2209H402.999V47.7054ZM464.523 48.9238C455.198 48.9238 447.606 41.8008 447.606 32.9908C447.606 24.1807 455.198 17.0577 464.523 17.0577C473.849 17.0577 481.44 24.1807 481.44 32.9908C481.44 41.8008 473.849 48.9238 464.523 48.9238ZM451.121 32.8502C451.121 41.2385 457.119 47.9866 464.523 47.9866C471.927 47.9866 477.926 41.2385 477.926 32.8502C477.926 24.5088 471.927 17.7607 464.523 17.7607C457.119 17.7607 451.121 24.5088 451.121 32.8502ZM484.243 22.8217V22.4C487.898 22.4 492.115 19.9163 493.802 17.0577H494.037V38.5205C494.037 44.8937 495.349 46.6744 500.222 46.6744C505.284 46.6744 512.079 40.3481 514.375 31.5849C514.375 30.7414 514.375 30.2259 514.375 30.2259C514.375 26.3364 514.047 22.8217 510.579 22.8217H508.048V22.4C511.704 22.4 515.921 19.9163 517.608 17.0577H517.843V39.8795C517.843 44.3313 519.155 47.7054 523.091 47.7054H524.403V48.2209H514.328C514.328 45.1749 514.375 37.9581 514.375 33.6468C512.032 40.4418 505.752 48.9238 498.817 48.9238C490.1 48.9238 490.522 41.7539 490.522 37.7238V30.2259C490.522 26.2427 490.241 22.8217 486.773 22.8217H484.243ZM524.881 17.7607C530.27 17.7607 534.347 12.6527 534.347 3.88953H535.05V17.7607H543.86V18.4636H535.05V41.051C535.05 43.3004 535.003 47.4711 538.845 47.4711C541.891 47.4711 544.422 46.0184 547.187 43.9096L547.468 44.3782C545.594 45.9715 541.938 48.9238 537.018 48.9238C532.191 48.9238 531.441 44.6125 531.441 41.8945V18.4636H524.881V17.7607ZM576.993 47.7054H578.305C582.241 47.7054 583.553 44.3313 583.553 39.8795V9.70041C583.553 5.24853 582.241 1.87447 578.305 1.87447H576.993V1.35899H601.829C608.531 1.35899 616.497 4.73305 616.497 12.887C616.497 19.5883 611.342 23.5247 603.61 24.7899C614.716 25.0242 619.496 30.3665 619.496 36.3648C619.496 45.4092 611.764 48.2209 605.391 48.2209H576.993V47.7054ZM587.068 25.2586V39.8795C587.068 44.3313 587.724 47.6585 594.425 47.6585H603.844C610.124 47.6585 615.982 44.0033 615.982 36.4586C615.982 28.3514 609.234 25.2586 600.611 25.2586H587.068ZM587.068 24.7899H597.612C606.469 24.7899 612.514 21.0878 612.514 12.9339C612.514 6.60752 607.593 1.9682 596.862 1.9682C596.206 1.9682 595.128 1.92133 594.425 1.92133C587.677 1.92133 587.068 5.24853 587.068 9.70041V24.7899ZM642.04 48.9238C632.715 48.9238 625.123 41.8008 625.123 32.9908C625.123 24.1807 632.715 17.0577 642.04 17.0577C651.366 17.0577 658.957 24.1807 658.957 32.9908C658.957 41.8008 651.366 48.9238 642.04 48.9238ZM628.638 32.8502C628.638 41.2385 634.636 47.9866 642.04 47.9866C649.444 47.9866 655.443 41.2385 655.443 32.8502C655.443 24.5088 649.444 17.7607 642.04 17.7607C634.636 17.7607 628.638 24.5088 628.638 32.8502ZM679.801 48.2209H663.165V47.7054H664.477C668.414 47.7054 669.726 44.3313 669.726 39.8795C669.726 35.4276 669.773 30.2259 669.773 30.2259C669.773 26.3364 669.445 22.8217 665.977 22.8217H663.446V22.4C667.102 22.4 671.319 19.9163 673.006 17.0577H673.241V31.0694C674.74 23.3841 681.816 17.0577 688.752 17.0577C694.094 17.0577 696.016 18.3699 696.016 18.3699V22.2594C693.063 20.8535 690.954 20.1506 687.674 20.1506C678.864 20.1506 673.709 26.5238 673.241 35.0058V39.8795C673.241 44.3313 674.553 47.7054 678.489 47.7054H679.801V48.2209ZM719.434 48.2209C706.454 48.2209 700.221 40.1138 700.221 32.0535C700.221 24.5556 706.172 17.0577 718.31 17.0577C721.871 17.0577 725.152 17.8544 728.057 19.354V14.5272C728.057 10.5439 727.776 7.123 724.308 7.123H721.777V6.70125C725.433 6.70125 729.65 4.21757 731.337 1.35899H731.572V48.2209H719.434ZM703.736 32.1473C703.736 40.6293 711.468 47.518 718.825 47.518C723.793 47.518 728.057 45.5029 728.057 39.4577V20.2443C725.667 18.9791 722.059 17.995 719.106 17.995C710.437 17.995 703.736 24.087 703.736 32.1473ZM755.991 48.9238C746.666 48.9238 739.074 43.1598 739.074 34.1155C739.074 24.3213 746.619 17.0577 755.991 17.0577C763.724 17.0577 768.55 22.1657 768.55 26.8987C768.55 31.21 764.755 31.9598 760.256 31.9598H740.199C739.965 32.7565 739.871 33.5531 739.871 34.3498C739.871 42.738 748.681 45.4092 756.085 45.4092C763.302 45.4092 766.91 41.0042 766.91 41.0042L768.785 44.2845C768.785 44.2845 764.848 48.9238 755.991 48.9238ZM740.34 31.3975C744.042 31.3975 748.165 31.3506 751.165 31.21C760.818 30.7414 766.488 29.4293 766.488 24.6494C766.488 21.9314 764.942 19.5883 760.209 19.5883C750.602 19.5883 742.355 25.0242 740.34 31.3975ZM789.176 48.2209H772.54V47.7054H773.852C777.789 47.7054 779.101 44.3313 779.101 39.8795C779.101 35.4276 779.148 30.2259 779.148 30.2259C779.148 26.3364 778.82 22.8217 775.352 22.8217H772.821V22.4C776.477 22.4 780.694 19.9163 782.381 17.0577H782.616V31.0694C784.115 23.3841 791.191 17.0577 798.127 17.0577C803.469 17.0577 805.39 18.3699 805.39 18.3699V22.2594C802.438 20.8535 800.329 20.1506 797.049 20.1506C788.239 20.1506 783.084 26.5238 782.616 35.0058V39.8795C782.616 44.3313 783.928 47.7054 787.864 47.7054H789.176V48.2209ZM825.201 48.9238C819.015 48.9238 813.626 48.4083 809.034 45.4092L810.627 41.8477C815.126 45.6903 820.14 47.7523 826.56 47.7523C831.574 47.7523 835.979 45.3623 835.979 41.051C835.979 29.7573 810.393 39.5046 810.393 26.1958C810.393 19.5883 816.86 17.0577 824.029 17.0577C829.465 17.0577 834.901 18.0887 838.603 19.5883L837.057 23.4309C834.667 21.6971 827.825 18.0887 820.515 18.0887C816.578 18.0887 812.642 20.4318 812.642 24.4619C812.642 35.7088 838.416 25.2586 838.416 39.3171C838.416 45.9715 830.59 48.9238 825.201 48.9238ZM871.869 13.5431C871.869 4.82677 882.038 0.65606 891.692 0.65606C902.283 0.65606 913.201 4.49874 913.201 14.9489C913.201 26.1958 892.02 35.7556 879.32 44.7062H912.592V48.2209H873.275C887.755 37.3958 909.499 24.8837 909.499 14.3866C909.499 6.18577 900.267 1.35899 892.535 1.35899C884.616 1.35899 875.571 5.48284 875.571 14.3866C875.571 17.995 878.664 19.8694 881.335 19.8694C881.898 19.8694 882.46 19.7757 882.975 19.5883C882.272 20.9941 880.867 21.6502 879.18 21.6502C874.306 21.6502 871.869 17.9481 871.869 13.5431ZM943.93 48.9238C931.089 48.9238 920.686 39.2234 920.686 24.8368C920.686 10.4502 931.089 0.749788 943.93 0.749788C956.723 0.749788 967.126 10.4502 967.126 24.8368C967.126 39.2234 956.723 48.9238 943.93 48.9238ZM924.201 24.7899C924.201 38.8016 932.87 48.2209 943.976 48.2209C955.036 48.2209 963.612 38.8016 963.612 24.7899C963.612 10.7782 955.036 1.35899 943.976 1.35899C932.87 1.35899 924.201 10.7782 924.201 24.7899ZM973.235 13.5431C973.235 4.82677 983.404 0.65606 993.058 0.65606C1003.65 0.65606 1014.57 4.49874 1014.57 14.9489C1014.57 26.1958 993.386 35.7556 980.686 44.7062H1013.96V48.2209H974.641C989.122 37.3958 1010.87 24.8837 1010.87 14.3866C1010.87 6.18577 1001.63 1.35899 993.902 1.35899C985.982 1.35899 976.938 5.48284 976.938 14.3866C976.938 17.995 980.03 19.8694 982.702 19.8694C983.264 19.8694 983.826 19.7757 984.342 19.5883C983.639 20.9941 982.233 21.6502 980.546 21.6502C975.672 21.6502 973.235 17.9481 973.235 13.5431ZM1043.33 48.2209C1030.72 48.2209 1022.05 39.9732 1022.05 26.477C1022.05 13.3088 1033.77 -3.41382e-06 1049.28 -3.41382e-06C1055.37 -3.41382e-06 1058.56 1.35899 1058.56 1.35899L1057.81 5.01422C1053.78 3.98326 1050.36 3.32719 1047.08 3.37405C1033.58 3.5615 1026.32 8.81003 1025.29 21.4627C1029.36 16.1674 1036.58 13.3556 1044.26 13.3556C1058.14 13.3556 1064.65 22.1657 1064.65 31.21C1064.65 39.692 1057.57 48.2209 1043.33 48.2209ZM1025.15 25.0711C1025.24 35.8025 1031.66 47.518 1043.33 47.518C1053.17 47.518 1061.14 40.6761 1061.14 31.21C1061.14 21.5096 1052.47 14.4335 1042.77 14.4335C1032.78 14.4335 1026.18 19.3071 1025.15 25.0711Z" fill="white"/>
</svg>
